PathFileType	4	(X/Y/Z)	C:/Users/beibeiliu/ov580/test_trc/User1\sequence.13_training_dense_right.trc
DataRate	CameraRate	NumFrames	NumMarkers	Units	OrigDataRate	OrigDataStartFrame	OrigNumFrames
120	120	10	19	mm	120	34	67
Frame#	Time	ThumbCMC			ThumbMCP			ThumbIP			ThumbTip			IndexMCP			IndexPIP			IndexTip			MiddleMCP			MiddlePIP			MiddleTip			RingMCP			RingPIP			RingTip			PinkyMCP			PinkyPIP			PinkyTip			BackHand1			BackHand2			BackHand3	
		X0	Y0	Z0	X1	Y1	Z1	X2	Y2	Z2	X3	Y3	Z3	X4	Y4	Z4	X5	Y5	Z5	X6	Y6	Z6	X7	Y7	Z7	X8	Y8	Z8	X9	Y9	Z9	X10	Y10	Z10	X11	Y11	Z11	X12	Y12	Z12	X13	Y13	Z13	X14	Y14	Z14	X15	Y15	Z15	X16	Y16	Z16	X17	Y17	Z17	X18	Y18	Z18	
33	0.275	117.17	64.1807	107.575	81.1453	68.1157	90.9771	62.8425	44.3081	78.9472	59.7553	9.94551	82.1147	87.4221	38.4566	28.1028	73.8522	32.0107	10.3936	60.107	20.1053	-8.71245	97.1675	4.34163	28.2271	80.7177	-0.217835	4.03915	65.6261	-9.50127	-17.8063	104.214	-17.7376	35.3841	96.546	-25.9455	14.7869	86.3869	-37.4218	-3.4748	109.33	-34.7305	63.0612	105.042	-46.917	51.7766	106.662	-61.0387	29.8309	138.455	2.18027	78.4758	156.431	9.43651	101.444	139.516	40.959	85.4753	
34	0.283333	143.404	68.6847	94.51	111.564	86.3308	75.9944	89.2503	71.8422	68.8197	68.2794	44.3568	72.7675	111.394	46.4394	19.7552	98.2376	50.5592	-5.57142	84.4466	44.9924	-22.2264	105.032	20.1428	15.7142	90.123	16.1791	-3.94443	69.9285	9.97671	-29.196	101.787	-2.6575	31.9144	90.4721	-10.8894	12.1529	76.4888	-16.7908	-13.1443	93.6169	-18.4536	61.2124	83.0583	-30.0656	50.7516	79.5166	-42.3376	31.3467	134.64	1.71088	78.5654	155.696	3.51073	102.969	153.801	34.9295	76.6973	
35	0.291667	167.39	67.33	92.5468	140.348	91.2743	66.9886	113.826	86.2997	55.1645	93.4755	63.4877	60.7831	143.496	53.5466	8.16338	131.391	53.187	-11.1356	122.772	55.4657	-34.3654	126.976	22.8732	7.02196	114.622	22.3605	-16.0904	97.3722	19.0797	-39.9738	114.997	3.43838	26.3674	106.028	0.52872	-1.96582	91.2441	-6.15028	-23.8672	98.1762	-5.81207	50.3292	88.486	-10.9683	42.0977	79.5772	-26.1021	23.4798	145.549	5.85756	71.5805	160.889	0.982506	102.872	169.838	27.8923	75.3029	
36	0.3	183.311	63.852	87.248	162.675	87.8249	64.5537	136.79	81.5504	41.1735	114.035	62.595	44.2565	174.513	43.6026	6.26119	172.148	48.3124	-17.855	162.47	46.4392	-41.3491	161.482	19.449	2.01617	152.389	16.5991	-22.72	142.673	16.4567	-54.4264	143.978	1.08226	18.3909	137.528	-4.40433	-11.8317	128.142	-6.33994	-36.0974	120.139	-7.21564	44.0136	108.75	-17.4989	25.4295	108.56	-25.9558	10.131	160.657	3.6164	69.1492	171.943	-1.04606	96.8877	188.293	24.2403	78.9322	
37	0.308333	187.297	62.7951	92.1156	168.713	84.6305	60.5462	149.818	73.1854	32.1722	131.423	48.1151	31.6905	200.225	43.1541	9.69298	200.755	42.8816	-16.4111	200.037	46.6457	-43.4391	194.223	13.8998	3.03427	191.815	10.0144	-25.1804	186.41	8.91809	-57.1687	179.44	-5.51654	15.5395	180.918	-9.99398	-16.5417	177.294	-10.2371	-40.275	152.121	-19.3321	33.4718	149.286	-29.0123	13.8037	153.219	-37.6929	-7.34945	183.506	-2.06552	69.0928	187.579	-6.29175	97.5353	203.298	25.7023	76.9172	
38	0.316667	175.686	66.1824	95.7536	154.951	79.0908	61.5275	147.376	64.5467	31.1509	139.182	36.959	25.0678	205.501	60.4664	10.7554	208.116	64.5842	-13.7664	206.48	63.9535	-40.9965	212.803	29.8506	7.6796	216.99	34.2189	-20.424	217.634	34.672	-54.1834	208.982	10.4987	13.1803	216.179	7.23332	-10.8241	216.359	10.2717	-39.0155	189.147	-14.9173	31.5644	193.424	-23.4147	13.8812	203.503	-25.1992	-9.18265	201.092	8.17265	69.4495	204.637	6.27574	98.5983	208.807	39.4177	82.5742	
39	0.325	148.563	62.3955	100.408	131.29	63.6132	62.4246	135.05	49.8322	35.9329	140.319	25.5674	25.0735	178.632	80.1066	23.1612	179.911	87.9186	-3.31007	179.244	90.1312	-31.7862	204.199	64.703	12.4883	208.95	68.8985	-16.4789	210.214	70.6238	-47.8766	215.773	38.6794	16.7439	222.514	46.6778	-7.21817	224.251	50.2717	-34.9634	211.915	10.8092	31.9681	224.026	6.77172	14.1159	236.671	11.0575	-6.95782	208.116	27.3957	71.3781	209.225	22.5407	104.447	192.527	58.9447	88.5468	
40	0.333333	128.074	43.2159	101.576	110.69	35.4183	68.5971	119.144	26.9914	39.7747	141.529	12.1149	27.975	142.64	77.0801	26.8542	141.704	82.1868	0.100182	138.705	85.7649	-30.161	177.051	75.026	18.8723	174.174	83.4614	-6.84849	175.651	89.5695	-40.3884	199.066	59.0813	26.0136	201.855	73.2444	0.425202	206.466	79.1458	-24.4544	215.403	32.8923	38.121	227.13	37.6327	21.4897	238.792	48.775	4.95961	193.889	47.8018	75.7428	199.203	44.013	108.611	167.477	59.5178	93.3997	
41	0.341667	118.469	22.3829	105.421	101.313	5.59024	74.1748	117.398	0.748493	45.5207	144.421	-8.76378	33.9926	117.794	52.3034	26.8224	114.481	53.9244	-0.287961	110.295	53.1954	-25.2744	150.687	62.7632	16.2247	151.625	66.5103	-9.69134	151.949	69.846	-41.9239	180.288	57.6479	24.9707	179.374	67.3686	3.9578	184.754	74.5659	-25.5868	204.342	36.3187	44.4702	213.841	44.2001	23.4199	225.068	54.8196	11.4145	178.801	49.2508	80.9819	181.796	47.1304	108.956	144.101	51.5042	96.4017	
42	0.35	109.313	11.2767	109.95	96.5751	-13.3702	83.57	111.674	-23.3542	54.4933	141.661	-29.9949	45.2834	107.198	22.5267	24.0868	102.808	17.4901	3.26828	98.4394	11.5302	-21.9559	140.157	35.1548	14.88	138.961	33.7698	-7.53695	137.417	32.7885	-39.3308	163.414	33.8965	26.0513	166.531	39.8755	0.0589962	167.025	41.9088	-22.8882	193.455	19.5424	45.5815	201.235	21.0265	29.7615	210.05	31.1914	9.52276	164.887	39.0945	81.5812	169.196	43.8067	109.355	130.682	40.6281	93.2961	
